<!DOCTYPE svg PUBLIC "-//W3C//DTD SVG 20010904//EN" "http://www.w3.org/TR/2001/REC-SVG-20010904/DTD/svg10.dtd">
<svg version="1.0" xmlns="http://www.w3.org/2000/svg" width="300px" height="299px" viewBox="0 0 3000 2990" preserveAspectRatio="xMidYMid meet">
<g id="layer101" fill="#9DA5B3" stroke="none">
 <path d="M1195 2966 c-138 -30 -214 -55 -341 -115 -307 -146 -561 -399 -709 -706 -103 -213 -144 -400 -144 -650 1 -235 33 -398 118 -594 145 -334 407 -606 735 -762 217 -103 383 -139 646 -139 263 0 429 36 646 139 328 156 590 428 735 762 85 196 117 359 118 594 0 250 -41 437 -144 650 -148 307 -402 559 -709 706 -221 105 -383 139 -654 138 -155 0 -206 -4 -297 -23z m196 -42 c287 -100 526 -253 720 -462 186 -200 298 -405 366 -669 25 -98 27 -125 28 -283 0 -153 -3 -186 -23 -260 -34 -123 -75 -212 -147 -321 -276 -414 -821 -562 -1271 -344 -271 131 -460 359 -542 653 -24 87 -27 113 -27 257 0 136 4 173 24 245 32 118 71 207 136 307 102 156 230 269 407 358 101 50 136 78 177 140 25 39 26 44 29 228 2 103 7 187 12 187 4 0 54 -16 111 -36z"/>
 </g>

</svg>
